<?xml version="1.0" encoding="UTF-8"?>
<svg id="Layer_1" xmlns="http://www.w3.org/2000/svg" version="1.1" viewBox="0 0 2000 2000">
  <!-- Generator: Adobe Illustrator 29.7.1, SVG Export Plug-In . SVG Version: 2.1.1 Build 8)  -->
  <defs>
    <style>
      .st0 {
        fill: #d4062d;
      }
    </style>
  </defs>
  <path class="st0" d="M821.8,766.3l47.4-41.1c12.9-6,34.2-.9,45.5-4.3,9.5-2.8,33.3-37.8,49-38.3l202.1-21-114.9,81.3c23.6,69.8,57.6,136.2,80.1,206.4,15.2,47.8,17.4,60.7,5.2,110.1-15.4,62.6-47.9,130.3-75.5,188.7-52.7,111.7-111.9,220.6-167.9,330.6l-3.9-61c-1.6-64.5,7.4-132.6,2.6-197-2.3-30.2-11.2-57.3-36.5-75.6l-494.7-206.4-72.1-237.6,316.6,193.2-323.8-281.9-80.1-291.3,712.9,511.2c5.2,2.5,11.7-8.6,14.6-13.2,15.2-24,25.5-84.4,20.3-111.6-1.4-7.5-47.7-41.2-51.1-41.2h-76Z"/>
  <path class="st0" d="M1799,422.4l-78.6,289-322.7,283,319.1-195.6-76.1,239.2-402.4,170.9-339.1,367.5,177.4-297.4c45.4-81.6,106.3-194.2,99.4-289.6-2.5-34.4-16.2-70.7-26.4-103.4l649.5-463.5Z"/>
</svg>